<svg width="340" height="17" viewBox="0 0 340 17" fill="none" xmlns="http://www.w3.org/2000/svg">
<path d="M99.692 14.156C102.2 14.156 103.772 12.272 103.772 9.644C103.772 7.016 102.2 5.144 99.692 5.144C97.184 5.144 95.612 7.016 95.612 9.644C95.612 12.272 97.184 14.156 99.692 14.156ZM99.692 13.124C98.108 13.124 96.86 11.888 96.86 9.644C96.86 7.4 98.108 6.176 99.692 6.176C101.276 6.176 102.524 7.4 102.524 9.644C102.524 11.888 101.276 13.124 99.692 13.124ZM107.474 12.488L105.722 7.544H104.51L106.946 14H107.918L110.354 7.544H109.226L107.474 12.488ZM112.076 11.132H117.044C117.188 9.092 116 7.436 114.032 7.436C112.268 7.436 110.9 8.744 110.9 10.784C110.9 12.692 112.028 14.156 114.068 14.156C115.64 14.156 116.66 13.244 116.96 12.128H115.832C115.556 12.764 115.028 13.196 114.068 13.196C113.108 13.196 112.124 12.524 112.076 11.132ZM112.088 10.196C112.184 8.9 113.06 8.372 114.032 8.372C115.184 8.372 115.868 9.284 115.892 10.196H112.088ZM121.773 8.684V7.52C121.653 7.508 121.557 7.508 121.449 7.508C120.609 7.532 119.949 7.94 119.625 8.672V7.544H118.557V14H119.649V10.616C119.649 9.2 120.153 8.636 121.161 8.636C121.341 8.636 121.545 8.66 121.773 8.684ZM130.854 11.144C130.854 12.488 129.954 13.244 128.91 13.244C127.698 13.244 127.11 12.572 126.942 11.48H125.814C125.982 12.884 126.894 14.156 128.91 14.156C130.53 14.156 132.006 13.124 132.006 11.132C132.006 9.212 130.674 8.132 129.15 8.132C128.43 8.132 127.734 8.348 127.278 8.792L127.578 6.32H131.682V5.3H126.69L126.126 9.98L127.218 10.04C127.41 9.608 127.998 9.08 128.898 9.08C129.846 9.08 130.854 9.704 130.854 11.144ZM136.775 14.156C139.091 14.156 140.159 12.404 140.159 9.644C140.159 6.896 139.091 5.144 136.775 5.144C134.459 5.144 133.391 6.896 133.391 9.644C133.391 12.404 134.459 14.156 136.775 14.156ZM136.775 6.056C138.143 6.056 138.995 7.232 138.995 9.644C138.995 12.068 138.143 13.244 136.775 13.244C135.407 13.244 134.555 12.068 134.555 9.644C134.555 7.232 135.407 6.056 136.775 6.056ZM144.949 14.156C147.265 14.156 148.333 12.404 148.333 9.644C148.333 6.896 147.265 5.144 144.949 5.144C142.633 5.144 141.565 6.896 141.565 9.644C141.565 12.404 142.633 14.156 144.949 14.156ZM144.949 6.056C146.317 6.056 147.169 7.232 147.169 9.644C147.169 12.068 146.317 13.244 144.949 13.244C143.581 13.244 142.729 12.068 142.729 9.644C142.729 7.232 143.581 6.056 144.949 6.056ZM152.69 14H153.782V11.288H156.494V10.256H153.782V7.616H152.69V10.256H149.978V11.288H152.69V14ZM166.191 11.144C166.191 12.488 165.291 13.244 164.247 13.244C163.035 13.244 162.447 12.572 162.279 11.48H161.151C161.319 12.884 162.231 14.156 164.247 14.156C165.867 14.156 167.343 13.124 167.343 11.132C167.343 9.212 166.011 8.132 164.487 8.132C163.767 8.132 163.071 8.348 162.615 8.792L162.915 6.32H167.019V5.3H162.027L161.463 9.98L162.555 10.04C162.747 9.608 163.335 9.08 164.235 9.08C165.183 9.08 166.191 9.704 166.191 11.144ZM175.055 5.144C173.651 5.144 171.911 5.864 171.911 7.52C171.911 8.972 173.111 9.632 174.299 9.896L175.379 10.124C176.471 10.364 177.251 10.748 177.251 11.66C177.251 12.512 176.507 13.124 175.223 13.124C173.891 13.124 173.051 12.5 172.823 11.3H171.623C171.851 13.04 173.147 14.156 175.199 14.156C176.927 14.156 178.511 13.256 178.511 11.552C178.511 9.8 176.915 9.296 175.583 9.008L174.575 8.78C173.771 8.6 173.159 8.216 173.159 7.448C173.159 6.476 174.335 6.176 175.007 6.176C175.883 6.176 176.867 6.512 177.167 7.52H178.355C178.019 5.84 176.615 5.144 175.055 5.144ZM180.46 5.924V7.544H179.44V8.42H180.46V12.38C180.46 13.724 180.748 14 181.984 14H182.776V13.088H182.224C181.6 13.088 181.552 12.92 181.552 12.248V8.42H182.776V7.544H181.552V5.924H180.46ZM183.906 12.296C183.906 13.484 184.914 14.156 186.126 14.156C187.266 14.156 187.938 13.772 188.334 13.112C188.346 13.496 188.382 13.76 188.418 14H189.522C189.402 13.388 189.342 12.644 189.354 11.564L189.366 10.076C189.378 8.264 188.574 7.412 186.798 7.412C185.538 7.412 184.314 8.192 184.206 9.584H185.334C185.382 8.792 185.91 8.3 186.81 8.3C187.614 8.3 188.274 8.696 188.274 9.872V10.028C185.622 10.328 183.906 10.772 183.906 12.296ZM188.358 10.892V11.3C188.358 12.824 187.386 13.292 186.366 13.292C185.586 13.292 185.118 12.884 185.118 12.272C185.118 11.384 186.378 11.096 188.358 10.892ZM194.45 8.684V7.52C194.33 7.508 194.234 7.508 194.126 7.508C193.286 7.532 192.626 7.94 192.302 8.672V7.544H191.234V14H192.326V10.616C192.326 9.2 192.83 8.636 193.838 8.636C194.018 8.636 194.222 8.66 194.45 8.684ZM202.415 10.328L204.299 14H205.667L203.651 10.136C204.719 9.848 205.379 9.188 205.379 7.808C205.379 5.72 203.879 5.3 201.755 5.3H198.995V14H200.219V10.34H201.755C201.983 10.34 202.199 10.34 202.415 10.328ZM200.219 6.332H201.851C203.123 6.332 204.119 6.488 204.119 7.832C204.119 9.176 203.123 9.308 201.851 9.308H200.219V6.332ZM207.885 11.132H212.853C212.997 9.092 211.809 7.436 209.841 7.436C208.077 7.436 206.709 8.744 206.709 10.784C206.709 12.692 207.837 14.156 209.877 14.156C211.449 14.156 212.469 13.244 212.769 12.128H211.641C211.365 12.764 210.837 13.196 209.877 13.196C208.917 13.196 207.933 12.524 207.885 11.132ZM207.897 10.196C207.993 8.9 208.869 8.372 209.841 8.372C210.993 8.372 211.677 9.284 211.701 10.196H207.897ZM216.407 12.488L214.655 7.544H213.443L215.879 14H216.851L219.287 7.544H218.159L216.407 12.488ZM221.486 5.3H220.394V6.62H221.486V5.3ZM221.486 7.544H220.394V14H221.486V7.544ZM224.191 11.132H229.159C229.303 9.092 228.115 7.436 226.147 7.436C224.383 7.436 223.015 8.744 223.015 10.784C223.015 12.692 224.143 14.156 226.183 14.156C227.755 14.156 228.775 13.244 229.075 12.128H227.947C227.671 12.764 227.143 13.196 226.183 13.196C225.223 13.196 224.239 12.524 224.191 11.132ZM224.203 10.196C224.299 8.9 225.175 8.372 226.147 8.372C227.299 8.372 227.983 9.284 228.007 10.196H224.203ZM233.528 7.544L232.244 12.32L231.008 7.544H229.832L231.692 14H232.688L234.068 8.804L235.496 14H236.492L238.352 7.544H237.176L235.94 12.32L234.656 7.544H233.528ZM243.209 9.428H244.349C244.145 8.204 243.197 7.424 241.805 7.424C240.377 7.424 239.225 8.084 239.225 9.224C239.225 10.424 240.185 10.832 241.061 11.012L242.021 11.204C242.717 11.348 243.329 11.624 243.329 12.272C243.329 12.872 242.657 13.232 241.829 13.232C240.869 13.232 240.353 12.74 240.185 11.912H239.033C239.153 13.04 240.113 14.156 241.805 14.156C243.281 14.156 244.433 13.424 244.433 12.152C244.433 10.904 243.401 10.46 242.225 10.232L241.313 10.052C240.689 9.932 240.329 9.692 240.329 9.176C240.329 8.588 241.049 8.36 241.685 8.36C242.441 8.36 243.041 8.66 243.209 9.428ZM252.973 14.156C255.481 14.156 257.053 12.272 257.053 9.644C257.053 7.016 255.481 5.144 252.973 5.144C250.465 5.144 248.893 7.016 248.893 9.644C248.893 12.272 250.465 14.156 252.973 14.156ZM252.973 13.124C251.389 13.124 250.141 11.888 250.141 9.644C250.141 7.4 251.389 6.176 252.973 6.176C254.557 6.176 255.805 7.4 255.805 9.644C255.805 11.888 254.557 13.124 252.973 13.124ZM259.864 8.516V7.544H258.772V14H259.864V10.496C259.864 9.116 260.512 8.384 261.568 8.384C262.816 8.384 262.984 9.248 262.984 10.244V14H264.076V9.92C264.076 8.444 263.512 7.436 261.952 7.436C260.86 7.436 260.236 7.904 259.864 8.516ZM267.041 14V5.3H265.949V14H267.041ZM270.106 5.3H269.014V6.62H270.106V5.3ZM270.106 7.544H269.014V14H270.106V7.544ZM273.17 8.516V7.544H272.078V14H273.17V10.496C273.17 9.116 273.818 8.384 274.874 8.384C276.122 8.384 276.29 9.248 276.29 10.244V14H277.382V9.92C277.382 8.444 276.818 7.436 275.258 7.436C274.166 7.436 273.542 7.904 273.17 8.516ZM279.987 11.132H284.955C285.099 9.092 283.911 7.436 281.943 7.436C280.179 7.436 278.811 8.744 278.811 10.784C278.811 12.692 279.939 14.156 281.979 14.156C283.551 14.156 284.571 13.244 284.871 12.128H283.743C283.467 12.764 282.939 13.196 281.979 13.196C281.019 13.196 280.035 12.524 279.987 11.132ZM279.999 10.196C280.095 8.9 280.971 8.372 281.943 8.372C283.095 8.372 283.779 9.284 283.803 10.196H279.999Z" fill="#828282"/>
<path d="M13.6069 6.9397C13.584 6.86877 13.5416 6.80571 13.4846 6.75765C13.4276 6.70958 13.3583 6.67846 13.2846 6.66779L9.06058 6.05402L7.17107 2.22279C7.13804 2.15605 7.087 2.09986 7.02374 2.06058C6.96046 2.0213 6.88748 2.00049 6.81301 2.00049C6.73854 2.00049 6.66555 2.0213 6.60228 2.06058C6.53901 2.09986 6.48798 2.15605 6.45494 2.22279L4.56543 6.05113L0.34145 6.66491C0.267816 6.67573 0.198669 6.7069 0.141801 6.75491C0.0849324 6.80293 0.0426044 6.86587 0.0195874 6.93665C-0.00342967 7.00743 -0.00622073 7.08324 0.0115288 7.15552C0.0292782 7.2278 0.0668627 7.29369 0.120046 7.34575L3.17643 10.3252L2.45524 14.5329C2.44317 14.606 2.45163 14.6809 2.47968 14.7495C2.50774 14.818 2.55428 14.8774 2.61412 14.921C2.67396 14.9646 2.74474 14.9907 2.81857 14.9964C2.89239 15.0022 2.96635 14.9873 3.03219 14.9534L6.81337 12.9693L10.5917 14.9555C10.6576 14.9895 10.7316 15.0044 10.8055 14.9987C10.8794 14.9929 10.9503 14.9667 11.0101 14.923C11.07 14.8793 11.1165 14.8198 11.1445 14.7512C11.1725 14.6825 11.1808 14.6075 11.1686 14.5343L10.4474 10.3266L13.5045 7.3472C13.5578 7.29553 13.5956 7.23002 13.6137 7.15803C13.6318 7.08604 13.6295 7.01042 13.6069 6.9397Z" fill="#FFB801"/>
<path d="M30.3403 6.93921C30.3174 6.86829 30.275 6.80522 30.218 6.75716C30.161 6.7091 30.0917 6.67797 30.018 6.6673L25.794 6.05353L23.9045 2.22231C23.8714 2.15556 23.8204 2.09938 23.7571 2.0601C23.6939 2.02081 23.6209 2 23.5464 2C23.4719 2 23.3989 2.02081 23.3357 2.0601C23.2724 2.09938 23.2214 2.15556 23.1883 2.22231L21.2988 6.05064L17.0748 6.66442C17.0012 6.67524 16.9321 6.70641 16.8752 6.75443C16.8183 6.80244 16.776 6.86538 16.753 6.93616C16.73 7.00695 16.7272 7.08275 16.7449 7.15503C16.7627 7.22731 16.8003 7.2932 16.8534 7.34527L19.9098 10.3247L19.1886 14.5324C19.1766 14.6055 19.185 14.6804 19.2131 14.749C19.2411 14.8175 19.2877 14.8769 19.3475 14.9205C19.4074 14.9641 19.4781 14.9902 19.552 14.996C19.6258 15.0017 19.6997 14.9868 19.7656 14.9529L23.5468 12.9688L27.3251 14.9551C27.391 14.989 27.465 15.0039 27.5389 14.9982C27.6128 14.9924 27.6837 14.9662 27.7435 14.9225C27.8034 14.8788 27.8499 14.8193 27.8779 14.7507C27.9059 14.682 27.9142 14.607 27.902 14.5339L27.1808 10.3261L30.2379 7.34671C30.2912 7.29504 30.329 7.22953 30.3471 7.15754C30.3652 7.08555 30.3629 7.00993 30.3403 6.93921Z" fill="#FFB801"/>
<path d="M47.0747 6.93921C47.0517 6.86829 47.0093 6.80522 46.9524 6.75716C46.8954 6.7091 46.8261 6.67797 46.7523 6.6673L42.5283 6.05353L40.6388 2.22231C40.6058 2.15556 40.5548 2.09938 40.4915 2.0601C40.4282 2.02081 40.3552 2 40.2808 2C40.2063 2 40.1333 2.02081 40.07 2.0601C40.0068 2.09938 39.9557 2.15556 39.9227 2.22231L38.0332 6.05064L33.8092 6.66442C33.7356 6.67524 33.6664 6.70641 33.6096 6.75443C33.5527 6.80244 33.5104 6.86538 33.4874 6.93616C33.4643 7.00695 33.4616 7.08275 33.4793 7.15503C33.4971 7.22731 33.5346 7.2932 33.5878 7.34527L36.6442 10.3247L35.923 14.5324C35.9109 14.6055 35.9194 14.6804 35.9475 14.749C35.9755 14.8175 36.022 14.8769 36.0819 14.9205C36.1417 14.9641 36.2125 14.9902 36.2863 14.996C36.3602 15.0017 36.4341 14.9868 36.5 14.9529L40.2811 12.9688L44.0594 14.9551C44.1253 14.989 44.1994 15.0039 44.2733 14.9982C44.3472 14.9924 44.418 14.9662 44.4779 14.9225C44.5377 14.8788 44.5843 14.8193 44.6123 14.7507C44.6402 14.682 44.6486 14.607 44.6364 14.5339L43.9152 10.3261L46.9723 7.34671C47.0256 7.29504 47.0634 7.22953 47.0815 7.15754C47.0996 7.08555 47.0972 7.00993 47.0747 6.93921Z" fill="#FFB801"/>
<path d="M63.8081 6.93921C63.7851 6.86829 63.7428 6.80522 63.6858 6.75716C63.6288 6.7091 63.5595 6.67797 63.4857 6.6673L59.2618 6.05353L57.3722 2.22231C57.3392 2.15556 57.2882 2.09938 57.2249 2.0601C57.1616 2.02081 57.0886 2 57.0142 2C56.9397 2 56.8667 2.02081 56.8035 2.0601C56.7402 2.09938 56.6891 2.15556 56.6561 2.22231L54.7666 6.05064L50.5426 6.66442C50.469 6.67524 50.3998 6.70641 50.343 6.75443C50.2861 6.80244 50.2438 6.86538 50.2208 6.93616C50.1977 7.00695 50.195 7.08275 50.2127 7.15503C50.2305 7.22731 50.268 7.2932 50.3212 7.34527L53.3776 10.3247L52.6564 14.5324C52.6443 14.6055 52.6528 14.6804 52.6809 14.749C52.7089 14.8175 52.7555 14.8769 52.8153 14.9205C52.8751 14.9641 52.9459 14.9902 53.0197 14.996C53.0936 15.0017 53.1675 14.9868 53.2334 14.9529L57.0145 12.9688L60.7928 14.9551C60.8587 14.989 60.9328 15.0039 61.0067 14.9982C61.0806 14.9924 61.1514 14.9662 61.2113 14.9225C61.2712 14.8788 61.3177 14.8193 61.3457 14.7507C61.3737 14.682 61.382 14.607 61.3698 14.5339L60.6486 10.3261L63.7057 7.34671C63.759 7.29504 63.7968 7.22953 63.8149 7.15754C63.833 7.08555 63.8306 7.00993 63.8081 6.93921Z" fill="#FFB801"/>
<path d="M80.5425 6.93921C80.5196 6.86829 80.4772 6.80522 80.4202 6.75716C80.3632 6.7091 80.2939 6.67797 80.2202 6.6673L75.9962 6.05353L74.1067 2.22231C74.0736 2.15556 74.0226 2.09938 73.9593 2.0601C73.896 2.02081 73.8231 2 73.7486 2C73.6741 2 73.6011 2.02081 73.5379 2.0601C73.4746 2.09938 73.4235 2.15556 73.3905 2.22231L71.501 6.05064L67.277 6.66442C67.2034 6.67524 67.1342 6.70641 67.0773 6.75443C67.0205 6.80244 66.9782 6.86538 66.9551 6.93616C66.9321 7.00695 66.9293 7.08275 66.9471 7.15503C66.9648 7.22731 67.0024 7.2932 67.0556 7.34527L70.112 10.3247L69.3908 14.5324C69.3787 14.6055 69.3872 14.6804 69.4152 14.749C69.4433 14.8175 69.4898 14.8769 69.5497 14.9205C69.6095 14.9641 69.6803 14.9902 69.7541 14.996C69.8279 15.0017 69.9019 14.9868 69.9678 14.9529L73.7489 12.9688L77.5272 14.9551C77.5931 14.989 77.6672 15.0039 77.7411 14.9982C77.815 14.9924 77.8858 14.9662 77.9457 14.9225C78.0056 14.8788 78.0521 14.8193 78.0801 14.7507C78.1081 14.682 78.1164 14.607 78.1042 14.5339L77.383 10.3261L80.4401 7.34671C80.4934 7.29504 80.5312 7.22953 80.5493 7.15754C80.5674 7.08555 80.5651 7.00993 80.5425 6.93921Z" fill="#FFB801"/>
</svg>
