<svg width="32" height="22" viewBox="0 0 32 22" fill="none" xmlns="http://www.w3.org/2000/svg">
<path d="M26.8971 10.0229C27.0646 9.44163 27.1171 8.84143 27.1171 8.25162C27.1171 4.25303 23.8641 1 19.8655 1C18.2878 1 16.7878 1.49815 15.5278 2.44074C14.3101 3.35149 13.3918 4.649 12.9419 6.09459C12.927 6.14243 12.8758 6.2525 12.6686 6.21809C12.6503 6.21505 12.6311 6.21553 12.6115 6.21421C12.5434 6.20985 12.4696 6.20612 12.3933 6.20612C10.0219 6.20612 7.90629 7.73962 7.09544 10.0334C7.08339 10.0675 7.04642 10.1479 6.94854 10.1289C6.93857 10.127 6.92867 10.1248 6.9187 10.1229C6.55935 10.0508 6.19085 10.0144 5.8234 10.0144C2.74517 10.0144 0.240967 12.5187 0.240967 15.5969C0.240967 18.6751 2.74517 21.1793 5.82326 21.1793H25.293C28.3713 21.1793 30.8755 18.6751 30.8755 15.5969C30.8755 13.1833 29.2956 11.0247 27.0119 10.2858C26.9556 10.2676 26.8378 10.2287 26.8971 10.0229ZM25.293 20.1409H5.82326C3.31781 20.1409 1.27937 18.1026 1.27937 15.5969C1.27937 13.0913 3.31774 11.0528 5.82326 11.0528C6.13069 11.0528 6.43882 11.0842 6.73892 11.146C6.83694 11.1662 6.93545 11.1764 7.03154 11.1764C7.51772 11.1764 7.89667 10.9103 8.04523 10.4646C8.68696 8.53857 10.4342 7.24451 12.3932 7.24451C12.4563 7.24451 12.5254 7.24915 12.5985 7.25414C12.678 7.25954 12.7604 7.26507 12.8486 7.2659L12.867 7.26597C13.4687 7.26597 13.8251 6.989 13.926 6.44273C13.9289 6.42722 13.9311 6.41234 13.9334 6.40293C14.746 3.79232 17.13 2.0384 19.8655 2.0384C23.2915 2.0384 26.0787 4.82567 26.0787 8.25162C26.0787 8.83956 25.9926 9.43443 25.8227 10.0196C25.7401 10.3046 25.7588 10.558 25.8785 10.773C26.0564 11.0925 26.3764 11.1818 26.5302 11.2247L26.5545 11.2315C28.4873 11.7888 29.8372 13.5839 29.8372 15.5969C29.8371 18.1025 27.7986 20.1409 25.293 20.1409Z" fill="#2A2996" stroke="#2A2996" stroke-width="0.4"/>
</svg>
