<svg width="54" height="10" viewBox="0 0 54 10" fill="none" xmlns="http://www.w3.org/2000/svg">
<path d="M9.6955 3.68408C9.68037 3.63582 9.65245 3.59291 9.61491 3.5602C9.57737 3.5275 9.53171 3.50632 9.4831 3.49906L6.70018 3.08143L5.4553 0.474508C5.43353 0.429092 5.39991 0.390862 5.35823 0.364134C5.31654 0.337405 5.26845 0.323242 5.21939 0.323242C5.17033 0.323242 5.12224 0.337405 5.08055 0.364134C5.03887 0.390862 5.00525 0.429092 4.98348 0.474508L3.7386 3.07946L0.955673 3.4971C0.907161 3.50446 0.861604 3.52568 0.824137 3.55835C0.78667 3.59102 0.758782 3.63385 0.743618 3.68201C0.728453 3.73017 0.726614 3.78175 0.738308 3.83093C0.750003 3.88012 0.774765 3.92495 0.809804 3.96038L2.82347 5.98771L2.34832 8.8508C2.34037 8.90052 2.34594 8.95153 2.36443 8.99816C2.38291 9.04479 2.41357 9.0852 2.453 9.11487C2.49242 9.14455 2.53906 9.16232 2.5877 9.16622C2.63633 9.17011 2.68506 9.15997 2.72844 9.13692L5.21963 7.78684L7.70891 9.13839C7.75233 9.16148 7.80111 9.17164 7.8498 9.16773C7.89849 9.16382 7.94517 9.146 7.98461 9.11626C8.02406 9.08652 8.05471 9.04603 8.07315 8.99933C8.09159 8.95262 8.09709 8.90153 8.08903 8.85178L7.61388 5.98869L9.62802 3.96136C9.66314 3.92621 9.68806 3.88163 9.69998 3.83264C9.7119 3.78365 9.71035 3.7322 9.6955 3.68408Z" fill="#FFB801"/>
<path d="M20.7204 3.68359C20.7053 3.63533 20.6774 3.59242 20.6398 3.55972C20.6023 3.52701 20.5566 3.50583 20.508 3.49858L17.7251 3.08094L16.4802 0.47402C16.4584 0.428604 16.4248 0.390374 16.3831 0.363645C16.3414 0.336917 16.2934 0.322754 16.2443 0.322754C16.1952 0.322754 16.1471 0.336917 16.1055 0.363645C16.0638 0.390374 16.0301 0.428604 16.0084 0.47402L14.7635 3.07898L11.9806 3.49661C11.9321 3.50398 11.8865 3.52519 11.849 3.55786C11.8116 3.59053 11.7837 3.63336 11.7685 3.68152C11.7534 3.72968 11.7515 3.78126 11.7632 3.83045C11.7749 3.87963 11.7997 3.92446 11.8347 3.95989L13.8484 5.98722L13.3732 8.85032C13.3653 8.90003 13.3708 8.95105 13.3893 8.99767C13.4078 9.0443 13.4385 9.08471 13.4779 9.11439C13.5173 9.14406 13.564 9.16184 13.6126 9.16573C13.6612 9.16962 13.71 9.15948 13.7533 9.13643L16.2445 7.78635L18.7338 9.1379C18.7772 9.16099 18.826 9.17115 18.8747 9.16724C18.9234 9.16333 18.9701 9.14551 19.0095 9.11577C19.049 9.08603 19.0796 9.04554 19.0981 8.99884C19.1165 8.95213 19.122 8.90105 19.1139 8.8513L18.6388 5.9882L20.6529 3.96087C20.688 3.92572 20.713 3.88114 20.7249 3.83215C20.7368 3.78317 20.7352 3.73172 20.7204 3.68359Z" fill="#FFB801"/>
<path d="M31.7453 3.6831C31.7302 3.63485 31.7022 3.59193 31.6647 3.55923C31.6272 3.52653 31.5815 3.50534 31.5329 3.49809L28.75 3.08045L27.5051 0.473532C27.4833 0.428115 27.4497 0.389885 27.408 0.363157C27.3663 0.336429 27.3182 0.322266 27.2692 0.322266C27.2201 0.322266 27.172 0.336429 27.1303 0.363157C27.0887 0.389885 27.055 0.428115 27.0333 0.473532L25.7884 3.07849L23.0055 3.49612C22.957 3.50349 22.9114 3.5247 22.8739 3.55737C22.8365 3.59004 22.8086 3.63287 22.7934 3.68103C22.7783 3.72919 22.7764 3.78077 22.7881 3.82996C22.7998 3.87914 22.8246 3.92397 22.8596 3.9594L24.8733 5.98673L24.3981 8.84983C24.3902 8.89954 24.3957 8.95056 24.4142 8.99719C24.4327 9.04382 24.4634 9.08422 24.5028 9.1139C24.5422 9.14357 24.5889 9.16135 24.6375 9.16524C24.6861 9.16913 24.7349 9.15899 24.7782 9.13594L27.2694 7.78586L29.7587 9.13741C29.8021 9.1605 29.8509 9.17066 29.8996 9.16675C29.9483 9.16285 29.995 9.14503 30.0344 9.11529C30.0738 9.08555 30.1045 9.04506 30.1229 8.99835C30.1414 8.95164 30.1469 8.90056 30.1388 8.85081L29.6637 5.98771L31.6778 3.96038C31.7129 3.92523 31.7378 3.88065 31.7498 3.83166C31.7617 3.78268 31.7601 3.73123 31.7453 3.6831Z" fill="#FFB801"/>
<path d="M42.7704 3.6831C42.7553 3.63485 42.7274 3.59193 42.6899 3.55923C42.6523 3.52653 42.6067 3.50534 42.5581 3.49809L39.7751 3.08045L38.5303 0.473532C38.5085 0.428115 38.4749 0.389885 38.4332 0.363157C38.3915 0.336429 38.3434 0.322266 38.2943 0.322266C38.2453 0.322266 38.1972 0.336429 38.1555 0.363157C38.1138 0.389885 38.0802 0.428115 38.0584 0.473532L36.8136 3.07849L34.0306 3.49612C33.9821 3.50349 33.9366 3.5247 33.8991 3.55737C33.8616 3.59004 33.8337 3.63287 33.8186 3.68103C33.8034 3.72919 33.8016 3.78077 33.8133 3.82996C33.825 3.87914 33.8497 3.92397 33.8848 3.9594L35.8984 5.98673L35.4233 8.84983C35.4153 8.89954 35.4209 8.95056 35.4394 8.99719C35.4579 9.04382 35.4885 9.08422 35.528 9.1139C35.5674 9.14357 35.614 9.16135 35.6626 9.16524C35.7113 9.16913 35.76 9.15899 35.8034 9.13594L38.2946 7.78586L40.7839 9.13741C40.8273 9.1605 40.8761 9.17066 40.9248 9.16675C40.9734 9.16285 41.0201 9.14503 41.0596 9.11529C41.099 9.08555 41.1297 9.04506 41.1481 8.99835C41.1665 8.95164 41.172 8.90056 41.164 8.85081L40.6888 5.98771L42.703 3.96038C42.7381 3.92523 42.763 3.88065 42.7749 3.83166C42.7868 3.78268 42.7853 3.73123 42.7704 3.6831Z" fill="#FFB801"/>
<path d="M53.7951 3.6831C53.78 3.63485 53.7521 3.59193 53.7146 3.55923C53.677 3.52653 53.6314 3.50534 53.5827 3.49809L50.7998 3.08045L49.5549 0.473532C49.5332 0.428115 49.4995 0.389885 49.4579 0.363157C49.4162 0.336429 49.3681 0.322266 49.319 0.322266C49.27 0.322266 49.2219 0.336429 49.1802 0.363157C49.1385 0.389885 49.1049 0.428115 49.0831 0.473532L47.8382 3.07849L45.0553 3.49612C45.0068 3.50349 44.9612 3.5247 44.9237 3.55737C44.8863 3.59004 44.8584 3.63287 44.8432 3.68103C44.8281 3.72919 44.8262 3.78077 44.8379 3.82996C44.8496 3.87914 44.8744 3.92397 44.9094 3.9594L46.9231 5.98673L46.4479 8.84983C46.44 8.89954 46.4456 8.95056 46.464 8.99719C46.4825 9.04382 46.5132 9.08422 46.5526 9.1139C46.592 9.14357 46.6387 9.16135 46.6873 9.16524C46.7359 9.16913 46.7847 9.15899 46.8281 9.13594L49.3193 7.78586L51.8086 9.13741C51.852 9.1605 51.9008 9.17066 51.9494 9.16675C51.9981 9.16285 52.0448 9.14503 52.0843 9.11529C52.1237 9.08555 52.1544 9.04506 52.1728 8.99835C52.1912 8.95164 52.1967 8.90056 52.1887 8.85081L51.7135 5.98771L53.7277 3.96038C53.7628 3.92523 53.7877 3.88065 53.7996 3.83166C53.8115 3.78268 53.81 3.73123 53.7951 3.6831Z" fill="#FFB801"/>
</svg>
